<?xml version="1.0" encoding="UTF-8" standalone="no"?>
<svg
   xmlns:dc="http://purl.org/dc/elements/1.1/"
   xmlns:cc="http://creativecommons.org/ns#"
   xmlns:rdf="http://www.w3.org/1999/02/22-rdf-syntax-ns#"
   xmlns:svg="http://www.w3.org/2000/svg"
   xmlns="http://www.w3.org/2000/svg"
   xmlns:sodipodi="http://sodipodi.sourceforge.net/DTD/sodipodi-0.dtd"
   xmlns:inkscape="http://www.inkscape.org/namespaces/inkscape"
   version="1.1"
   id="svg2"
   xml:space="preserve"
   width="512"
   height="512"
   viewBox="0 0 258.42667 260.02667"
   sodipodi:docname="linkedin.eps"><metadata
     id="metadata8"><rdf:RDF><cc:Work
         rdf:about=""><dc:format>image/svg+xml</dc:format><dc:type
           rdf:resource="http://purl.org/dc/dcmitype/StillImage" /></cc:Work></rdf:RDF></metadata><defs
     id="defs6"><clipPath
       clipPathUnits="userSpaceOnUse"
       id="clipPath20"><path
         d="m 25.3828,1788.75 c 0,75.17 62.4375,136.08 139.4692,136.08 H 1773.37 c 77.03,0 139.49,-60.91 139.49,-136.08 V 161.441 c 0,-75.1402 -62.46,-136.0699 -139.49,-136.0699 H 164.852 C 87.8203,25.3711 25.3828,86.3008 25.3828,161.441 V 1788.75 Z"
         id="path18" /></clipPath><linearGradient
       x1="0"
       y1="0"
       x2="1"
       y2="0"
       gradientUnits="userSpaceOnUse"
       gradientTransform="matrix(1e-7,1899.46,1899.46,-1e-7,969.121,25.37)"
       spreadMethod="pad"
       id="linearGradient26"><stop
         style="stop-opacity:1;stop-color:#2d69a1"
         offset="0"
         id="stop22" /><stop
         style="stop-opacity:1;stop-color:#72bce9"
         offset="1"
         id="stop24" /></linearGradient></defs><sodipodi:namedview
     pagecolor="#ffffff"
     bordercolor="#666666"
     borderopacity="1"
     objecttolerance="10"
     gridtolerance="10"
     guidetolerance="10"
     inkscape:pageopacity="0"
     inkscape:pageshadow="2"
     inkscape:window-width="640"
     inkscape:window-height="480"
     id="namedview4" /><g
     id="g10"
     inkscape:groupmode="layer"
     inkscape:label="ink_ext_XXXXXX"
     transform="matrix(1.3333333,0,0,-1.3333333,0,260.02667)"><g
       id="g12"
       transform="scale(0.1)"><g
         id="g14"><g
           id="g16"
           clip-path="url(#clipPath20)"><path
             d="m 25.3828,1788.75 c 0,75.17 62.4375,136.08 139.4692,136.08 H 1773.37 c 77.03,0 139.49,-60.91 139.49,-136.08 V 161.441 c 0,-75.1402 -62.46,-136.0699 -139.49,-136.0699 H 164.852 c -77.0317,0 -139.4692,60.9297 -139.4692,136.0699 v 1627.309 0"
             style="fill:url(#linearGradient26);fill-opacity:1;fill-rule:nonzero;stroke:none"
             id="path28" /></g></g><path
         d="m 164.852,1899.45 c -62.911,0 -114.0903,-49.66 -114.0903,-110.7 V 161.441 c 0,-61.019 51.1793,-110.6793 114.0903,-110.6793 H 1773.37 c 62.93,0 114.11,49.6603 114.11,110.6793 V 1788.75 c 0,61.04 -51.18,110.7 -114.11,110.7 H 164.852 Z M 1773.37,0 H 164.852 C 73.9648,0 0,72.4219 0,161.441 V 1788.75 c 0,89.02 73.9648,161.46 164.852,161.46 H 1773.37 c 90.91,0 164.87,-72.44 164.87,-161.46 V 161.441 C 1938.24,72.4219 1864.28,0 1773.37,0 v 0"
         style="fill:#2d69a1;fill-opacity:1;fill-rule:nonzero;stroke:none"
         id="path30" /><path
         d="m 454.988,1309.58 c 99.399,0 161.282,65.91 161.282,148.21 -1.856,84.14 -61.883,148.2 -159.395,148.2 -97.527,0 -161.277,-64.06 -161.277,-148.2 0,-82.3 61.863,-148.21 157.539,-148.21 h 1.851 z M 597.512,334.801 V 1192.52 H 312.449 V 334.801 h 285.063 v 0"
         style="fill:#ffffff;fill-opacity:1;fill-rule:evenodd;stroke:none"
         id="path32" /><path
         d="m 755.273,334.801 h 285.077 v 478.988 c 0,25.621 1.87,51.262 9.4,69.539 20.59,51.242 67.52,104.305 146.26,104.305 103.18,0 144.43,-78.692 144.43,-193.961 V 334.801 h 285.06 v 491.801 c 0,263.448 -140.64,386.028 -328.21,386.028 -153.8,0 -221.31,-85.97 -258.82,-144.51 h 1.88 v 124.4 H 755.273 c 3.743,-80.47 0,-857.719 0,-857.719 v 0"
         style="fill:#ffffff;fill-opacity:1;fill-rule:evenodd;stroke:none"
         id="path34" /></g></g></svg>
